<svg width="17" height="17" viewBox="0 0 17 17" fill="none" xmlns="http://www.w3.org/2000/svg">
<path d="M12 8.5C12 10.433 10.433 12 8.5 12C6.567 12 5 10.433 5 8.5C5 6.567 6.567 5 8.5 5C10.433 5 12 6.567 12 8.5Z" fill="#2267EC"/>
<path d="M12 8.5C12 10.433 10.433 12 8.5 12C6.567 12 5 10.433 5 8.5C5 6.567 6.567 5 8.5 5C10.433 5 12 6.567 12 8.5Z" stroke="#2267EC"/>
<path d="M14.4122 8.50005C14.4122 11.7653 11.7652 14.4122 8.49999 14.4122C5.23479 14.4122 2.58783 11.7653 2.58783 8.50005C2.58783 5.23486 5.23479 2.58789 8.49999 2.58789C11.7652 2.58789 14.4122 5.23486 14.4122 8.50005Z" stroke="#2267EC" stroke-width="1.5"/>
<line x1="8.56082" x2="8.56082" y2="2" stroke="#2267EC" stroke-width="1.5"/>
<line x1="8.56082" y1="15" x2="8.56082" y2="17" stroke="#2267EC" stroke-width="1.5"/>
<line x1="15" y1="7.97974" x2="17" y2="7.97974" stroke="#2267EC" stroke-width="1.5"/>
<line y1="7.97974" x2="2" y2="7.97974" stroke="#2267EC" stroke-width="1.5"/>
</svg>
